<?xml version="1.0" standalone="no"?>
<!DOCTYPE svg PUBLIC "-//W3C//DTD SVG 20010904//EN"
 "http://www.w3.org/TR/2001/REC-SVG-20010904/DTD/svg10.dtd">
<svg version="1.0" xmlns="http://www.w3.org/2000/svg"
 width="700.000000pt" height="700.000000pt" viewBox="0 0 700.000000 700.000000"
 preserveAspectRatio="xMidYMid meet">
<metadata>
Created by potrace 1.14, written by Peter Selinger 2001-2017
</metadata>
<g transform="translate(0.000000,700.000000) scale(0.100000,-0.100000)"
fill="#000000" stroke="none">
<path d="M1194 6690 c-467 -41 -872 -394 -998 -870 -14 -52 -30 -135 -36 -185
-14 -124 -14 -4146 0 -4270 32 -280 152 -530 349 -726 142 -141 281 -228 458
-283 172 -53 69 -51 2238 -51 1932 0 2024 1 2105 19 364 79 647 306 810 649
56 117 84 211 105 347 22 142 22 4218 0 4360 -21 136 -49 230 -105 347 -179
376 -517 622 -911 663 -115 11 -3880 12 -4015 0z m2241 -1550 c134 -42 222
-96 326 -200 86 -85 102 -107 147 -200 53 -110 82 -216 82 -298 l0 -50 123 -3
c109 -4 128 -7 179 -32 33 -16 76 -49 102 -78 85 -94 78 -41 147 -1142 59
-943 61 -986 45 -1039 -21 -72 -87 -147 -158 -179 l-53 -24 -1134 -3 c-1237
-3 -1203 -4 -1291 54 -46 31 -95 100 -112 158 -9 34 0 224 50 1034 61 993 61
993 88 1052 31 70 102 141 172 173 37 17 72 22 165 25 133 5 121 -6 131 111 7
79 53 213 97 287 117 193 307 327 530 374 78 16 285 5 364 -20z"/>
<path d="M3080 4841 c-189 -61 -308 -204 -334 -398 l-7 -53 472 0 472 0 -6 66
c-9 123 -97 260 -214 334 -106 68 -266 89 -383 51z"/>
<path d="M2256 4058 c-3 -13 -28 -401 -56 -863 -27 -462 -53 -875 -56 -917
l-7 -78 1078 0 1078 0 -6 68 c-3 37 -29 450 -57 917 -29 468 -56 860 -61 873
-8 20 -15 22 -94 22 l-85 0 0 -178 c0 -154 -2 -182 -19 -212 -20 -38 -88 -80
-129 -80 -43 0 -110 39 -134 78 -21 34 -23 51 -27 215 l-3 177 -469 0 -469 0
0 -176 c0 -163 -2 -179 -22 -215 -23 -41 -85 -79 -129 -79 -41 0 -112 42 -134
80 -18 31 -20 56 -23 213 l-4 177 -84 0 c-79 0 -84 -1 -88 -22z"/>
</g>
</svg>
